<?xml version="1.0" encoding="UTF-8" standalone="no"?>
<!-- Generator: Adobe Illustrator 27.5.0, SVG Export Plug-In . SVG Version: 6.00 Build 0)  -->

<svg
   version="1.1"
   x="0px"
   y="0px"
   viewBox="0 -57.95 50 50"
   xml:space="preserve"
   id="svg2181"
   sodipodi:docname="HuskyLogoWhite - Copy.svg"
   width="50"
   height="50"
   inkscape:export-filename="logo.png"
   inkscape:export-xdpi="4.938273"
   inkscape:export-ydpi="4.938273"
   inkscape:version="1.2.2 (732a01da63, 2022-12-09)"
   xmlns:inkscape="http://www.inkscape.org/namespaces/inkscape"
   xmlns:sodipodi="http://sodipodi.sourceforge.net/DTD/sodipodi-0.dtd"
   xmlns="http://www.w3.org/2000/svg"
   xmlns:svg="http://www.w3.org/2000/svg"><defs
   id="defs2185" /><sodipodi:namedview
   id="namedview2183"
   pagecolor="#ffffff"
   bordercolor="#ffffff"
   borderopacity="1"
   inkscape:showpageshadow="false"
   inkscape:pageopacity="0"
   inkscape:pagecheckerboard="true"
   inkscape:deskcolor="#505050"
   showgrid="true"
   inkscape:zoom="11.313708"
   inkscape:cx="25.544233"
   inkscape:cy="22.318058"
   inkscape:window-width="1920"
   inkscape:window-height="1013"
   inkscape:window-x="-9"
   inkscape:window-y="-9"
   inkscape:window-maximized="1"
   inkscape:current-layer="svg2181"
   showborder="true"
   borderlayer="true"
   shape-rendering="auto" />
<style
   type="text/css"
   id="style1995">
	.st0{display:none;}
	.st1{display:inline;}
	.st2{display:inline;opacity:0.8;fill:#808080;}
	.st3{display:inline;opacity:0.8;fill:#4C4C4C;}
	.st4{display:inline;opacity:0.8;}
	.st5{display:inline;opacity:0.8;fill:none;stroke:#000000;stroke-width:5;stroke-miterlimit:10;}
	.st6{fill:#4C4C4C;}
	.st7{fill:#808080;}
	.st8{display:inline;opacity:0.8;fill:none;stroke:#000000;stroke-width:20;stroke-miterlimit:10;}
	.st9{display:inline;opacity:0.5;fill:none;stroke:#FF0000;stroke-miterlimit:10;}
	.st10{display:inline;fill:none;stroke:#FF0000;stroke-miterlimit:10;}
	.st11{fill:none;stroke:#FF0000;stroke-miterlimit:10;}
	.st12{display:inline;fill:none;stroke:#D00000;stroke-linecap:square;stroke-linejoin:bevel;stroke-miterlimit:10;}
	.st13{display:inline;fill:none;stroke:#D00000;stroke-linejoin:bevel;stroke-miterlimit:10;}
	.st14{fill:none;stroke:#D00000;stroke-linecap:square;stroke-linejoin:bevel;stroke-miterlimit:10;}
	.st15{fill:none;stroke:#D00000;stroke-linejoin:bevel;stroke-miterlimit:10;}
	.st16{fill:#FFFFFF;}
	.st17{display:inline;fill:#808080;}
	.st18{display:inline;fill:#4C4C4C;}
</style>
<g
   id="Layer_9"
   class="st0">
	<rect
   class="st1"
   width="1080"
   height="1080"
   id="rect1997"
   x="0"
   y="0" />
</g>
<g
   id="Layer_1"
   class="st0">
	<polyline
   class="st2"
   points="104.86,282.42 506.52,57.17 506.52,230.22 258.88,370.26  "
   id="polyline2000" />
	<polyline
   class="st3"
   points="258.88,370.26 258.88,650.24 104.34,736.74 104.86,282.42  "
   id="polyline2002" />
	<polyline
   class="st4"
   points="827.23,370.14 827.23,650.13 981.78,736.63 981.25,282.3  "
   id="polyline2004" />
	<polyline
   class="st2"
   points="981.25,282.3 579.59,57.05 579.59,230.1 827.23,370.14  "
   id="polyline2006" />
	<polyline
   class="st3"
   points="540.12,850.2 292.35,709.4 138.08,796.38 540.4,1024.4  "
   id="polyline2008" />
	<polyline
   class="st4"
   points="540.4,1024.4 941.72,798.58 788.58,711.56 540.12,850.2  "
   id="polyline2010" />
	<ellipse
   class="st3"
   cx="440.79001"
   cy="366.51999"
   rx="35.830002"
   ry="47.34"
   id="ellipse2012" />
	<ellipse
   class="st4"
   cx="627.78998"
   cy="363.34"
   rx="35.830002"
   ry="47.34"
   id="ellipse2014" />
	<line
   class="st5"
   x1="541.27002"
   y1="850.20001"
   x2="541.27002"
   y2="1026.64"
   id="line2016" />
	<polygon
   class="st2"
   points="293.13,191.57 108.82,57 103.88,285.98 "
   id="polygon2018" />
	<polygon
   class="st2"
   points="792.86,191.57 977.17,57 982.11,285.98 "
   id="polygon2020" />
	<g
   class="st4"
   id="g2026">
		<polyline
   class="st6"
   points="545.45,590.23 416.72,460.53 542.59,493.81   "
   id="polyline2022" />
		<polyline
   points="542.59,493.81 676.89,464.5 545.45,590.23   "
   id="polyline2024" />
	</g>
	<g
   class="st4"
   id="g2032">
		<polygon
   class="st7"
   points="543.68,526.72 676.89,464.72 542.64,493.81 "
   id="polygon2028" />
		<polygon
   class="st7"
   points="543.68,526.72 416.72,460.65 543.68,493.81 "
   id="polygon2030" />
	</g>
	<path
   class="st3"
   d="m 492.2,657.46 c 0,0 -0.99,9.39 0.24,21.57 2.31,22.78 12.4,55.33 51.34,54.5 v -72.81"
   id="path2034" />
	<path
   class="st3"
   d="m 594.73,657.59 c 0,0 8.17,77.34 -51.58,76.07 v -72.81"
   id="path2036" />
	<polygon
   class="st4"
   points="212.16,308.43 131.19,269 131.19,105.38 293.13,227.35 "
   id="polygon2038" />
	<polygon
   class="st3"
   points="874.03,299.75 955,260.32 955,96.7 793.06,218.67 "
   id="polygon2040" />
	<path
   class="st4"
   d="M 394.56,647.33"
   id="path2042" />
	<path
   class="st2"
   d="m 421.65,366.13 c 0,0 -5.56,-8.95 -2.64,-21.15 2.92,-12.2 11.64,-15.26 14.56,-15.8 2.92,-0.54 9.07,0.75 11.45,3.36 2.38,2.61 -20.02,37.92 -23.37,33.59 z"
   id="path2044" />
	<path
   class="st2"
   d="m 625.62,366.37 c 0,0 -5.63,-9.07 -2.67,-21.43 2.96,-12.36 11.79,-15.46 14.75,-16.01 2.96,-0.55 9.19,0.76 11.6,3.41 2.41,2.65 -20.28,38.42 -23.68,34.03 z"
   id="path2046" />
	<path
   class="st8"
   d="M 390.95,656.25"
   id="path2048" />
	<path
   class="st4"
   d="m 722.14,609.26 c 0.06,-1 -109.92,40.94 -109.92,40.94 l -67.8,0.6 c 0,0 -4.38,14.56 -0.7,16.3 3.67,1.73 72.59,16.53 72.59,16.53"
   id="path2050" />
	<path
   class="st3"
   d="m 471.2,683.63 c 0,0 68.91,-14.8 72.59,-16.53 3.67,-1.73 -0.7,-16.3 -0.7,-16.3 l -67.8,-0.6 c 0,0 -109.98,-41.94 -109.92,-40.94"
   id="path2052" />
	<path
   class="st2"
   d="m 502.46,693.7 c 0,0 7.76,29.4 30.1,29.4 22.34,0 -30.1,-29.4 -30.1,-29.4 z"
   id="path2054" />
	<path
   class="st3"
   d="m 492.44,679.02 c 0,0 -2.42,-11.95 0,-16.76 2.42,-4.81 29.63,-3.6 38.29,-1.19 8.66,2.41 9.43,4.83 11.52,3.62 2.09,-1.21 29.3,-5.44 35.49,-5.74 6.18,-0.3 16.08,0.91 16.08,6.95 0,6.04 0.69,13.11 0.69,13.11"
   id="path2056" />
	<path
   class="st4"
   d="m 542.24,663.5 v 68.98 c 0,0 28.57,3.74 43.16,-22.95 14.59,-26.69 7.32,-47.89 7.32,-47.89 0,0 -6.78,-5.41 -18.31,-3.59 -11.52,1.82 -32.17,5.45 -32.17,5.45 z"
   id="path2058" />
</g>
<g
   id="Layer_6"
   class="st0">
	<line
   class="st9"
   x1="104.86"
   y1="280.42001"
   x2="543.78003"
   y2="530.73999"
   id="line2061" />
</g>
<g
   id="Layer_2"
   class="st0">
	<rect
   x="54.5"
   y="54.5"
   class="st10"
   width="972"
   height="972"
   id="rect2064" />
	<rect
   x="54.5"
   y="54.5"
   class="st10"
   width="486"
   height="972"
   id="rect2066" />
	<rect
   x="404"
   y="319"
   class="st10"
   width="99"
   height="163"
   id="rect2068" />
	<rect
   x="578.5"
   y="319.5"
   class="st10"
   width="99"
   height="163"
   id="rect2070" />
</g>
<g
   id="Layer_3"
   class="st0">
	<polygon
   class="st10"
   points="-387.13,870.26 -541.16,782.42 -139.5,557.17 -139.5,730.22 "
   id="polygon2073" />
	<polygon
   class="st10"
   points="292.87,709.17 138.84,797.01 540.5,1022.26 540.5,849.21 "
   id="polygon2075" />
	<polygon
   class="st10"
   points="788.13,709.17 942.16,797.01 540.5,1022.26 540.5,849.21 "
   id="polygon2077" />
	<g
   class="st1"
   id="g2087">
		<polygon
   class="st11"
   points="258.88,648.24 258.88,368.26 104.86,280.42 104.86,734.74 "
   id="polygon2079" />
		<g
   id="g2085">
			<polygon
   class="st11"
   points="104.86,280.42 104.86,54.5 281.72,181.24 506.52,55.17 506.52,228.22 258.88,368.26 "
   id="polygon2081" />
			<polygon
   class="st11"
   points="206.9,309.18 325,242.39 131.19,103.38 131.19,265.61 "
   id="polygon2083" />
		</g>
	</g>
	<g
   class="st1"
   id="g2097">
		<polygon
   class="st11"
   points="827.49,648.24 827.49,368.26 981.52,280.42 981.52,734.74 "
   id="polygon2089" />
		<g
   id="g2095">
			<polygon
   class="st11"
   points="981.52,280.42 981.52,54.5 804.66,181.24 579.86,55.17 579.86,228.22 827.49,368.26 "
   id="polygon2091" />
			<polygon
   class="st11"
   points="879.47,309.18 761.38,242.39 955.19,103.38 955.19,265.61 "
   id="polygon2093" />
		</g>
	</g>
</g>
<g
   id="Layer_5"
   class="st0">
	<polygon
   class="st12"
   points="540.78,493.81 413.72,458.27 540.78,530.74 "
   id="polygon2100" />
	<polyline
   class="st13"
   points="540.78,530.74 540.78,590.23 413.72,458.27  "
   id="polyline2102" />
	<g
   class="st1"
   id="g2108">
		<polygon
   class="st14"
   points="540.72,493.81 667.78,458.27 540.72,530.74 "
   id="polygon2104" />
		<polyline
   class="st15"
   points="540.72,530.74 540.72,590.23 667.78,458.27   "
   id="polyline2106" />
	</g>
	<g
   class="st1"
   id="g2114">
		<polygon
   class="st15"
   points="471.2,683.63 540.5,667.38 540.12,650.78 475.28,650.21 365.36,609.26 "
   id="polygon2110" />
		<path
   class="st15"
   d="m 491.39,667.46 c 0,0 -2.09,65.07 49.01,66.06 v -66.14 -2.08 c 0,0 -7.12,-6.55 -25.01,-6.17 -17.89,0.37 -24.1,-0.72 -24,8.33 z"
   id="path2112" />
	</g>
	<g
   class="st1"
   id="g2120">
		<polygon
   class="st15"
   points="609.66,683.63 540.36,667.38 540.74,650.78 605.58,650.21 715.5,609.26 "
   id="polygon2116" />
		<path
   class="st15"
   d="m 589.47,667.46 c 0,0 2.09,65.07 -49.01,66.06 v -66.14 -2.08 c 0,0 7.12,-6.55 25.01,-6.17 17.89,0.37 24.1,-0.72 24,8.33 z"
   id="path2118" />
	</g>
	<ellipse
   class="st13"
   cx="440.5"
   cy="366.5"
   rx="36"
   ry="47"
   id="ellipse2122" />
	<ellipse
   class="st13"
   cx="644.5"
   cy="366.5"
   rx="36"
   ry="47"
   id="ellipse2124" />
	<path
   class="st13"
   d="m 445.2,333.7 c 0,0 -9.1,22.78 -21.4,32.29 0,0 -2.45,3.09 -4.38,-5.2 -1.93,-8.29 -3.3,-27.31 12.89,-31.3 16.19,-3.99 12.89,4.21 12.89,4.21 z"
   id="path2126" />
	<path
   class="st13"
   d="m 649.2,333.7 c 0,0 -9.1,22.78 -21.4,32.29 0,0 -2.45,3.09 -4.38,-5.2 -1.92,-8.29 -3.3,-27.31 12.89,-31.3 16.19,-3.99 12.89,4.21 12.89,4.21 z"
   id="path2128" />
</g>
<g
   id="Layer_7"
   transform="matrix(0.05085126,0,0,0.05091601,-2.6066399,-60.24379)"
   style="stroke:none;stroke-width:8.2;stroke-dasharray:none;stroke-opacity:1">
	<path
   id="polygon2141-8"
   style="fill:#4c4c4c;stroke:#000000;stroke-width:10;stroke-linejoin:round;stroke-dasharray:none;stroke-opacity:1"
   class="st6"
   d="M 974.89,50.05 798.02086,176.79023 573.22984,50.72969 V 223.7707 L 820.8607,363.80977 V 643.8 L 974.89,730.3 V 275.96992 Z"
   inkscape:export-filename="favicon.png"
   inkscape:export-xdpi="3.1604946"
   inkscape:export-ydpi="3.1604946" /><path
   id="polygon2131-3"
   style="fill:#808080;stroke:#000000;stroke-width:10;stroke-linecap:butt;stroke-linejoin:round;stroke-dasharray:none;stroke-opacity:1"
   class="st7"
   d="M 295.22024,708.96992 141.20063,796.8 542.861,1022.05 944.52138,796.8 790.49199,708.96992 542.861,849.01094 Z" /><path
   id="polygon2135-4"
   style="fill:#808080;stroke:#000000;stroke-width:10;stroke-linejoin:round;stroke-dasharray:none;stroke-opacity:1"
   class="st7"
   d="M 110.89,50.05 V 275.96992 730.3 L 264.90954,643.8 V 363.80976 L 512.55016,223.7707 V 50.729688 L 287.75133,176.79023 Z" /><path
   id="ellipse2165-8"
   style="fill:#4c4c4c;stroke:#000000;stroke-width:10;stroke-linejoin:round;stroke-dasharray:none;stroke-opacity:1"
   class="st6"
   d="m 677.20001,366.29001 a 36,47 0 0 1 -36,47 36,47 0 0 1 -36,-47 36,47 0 0 1 36,-47 36,47 0 0 1 36,47 z" /><path
   id="ellipse2163-5"
   style="fill:#808080;stroke:#000000;stroke-width:10;stroke-linejoin:round;stroke-dasharray:none;stroke-opacity:1"
   class="st7"
   d="m 480.57999,366.29001 a 36,47 0 0 1 -36,47 36,47 0 0 1 -36,-47 36,47 0 0 1 36,-47 36,47 0 0 1 36,47 z" /><path
   id="polygon2147-1"
   style="fill:none;stroke:#000000;stroke-width:10;stroke-linecap:butt;stroke-linejoin:round;stroke-dasharray:none;stroke-opacity:1;paint-order:normal"
   class="st16"
   d="M 415.80143,458.06711 542.86198,590.02609 669.92057,458.06711 542.86198,493.60617 Z" /><path
   id="polygon2155-3"
   style="fill:none;fill-opacity:1;stroke:#000000;stroke-width:10;stroke-linecap:butt;stroke-linejoin:round;stroke-dasharray:none;stroke-opacity:1;paint-order:normal"
   class="st7"
   d="m 367.72047,609.05911 105.83002,74.35938 20.89256,-4.89844 c 2.02749,18.66696 10.82154,54.06068 48.41795,54.78906 37.59508,-0.72835 46.39006,-36.11963 48.41794,-54.78711 l 20.8828,4.89649 105.83979,-74.35938 -109.92963,40.93946 -65.2109,0.57031 -65.22067,-0.57031 z" /><path
   id="polygon2131"
   style="fill:#808080;stroke:none;stroke-width:8.2;stroke-dasharray:none"
   class="st7"
   d="M 542.89,1022.05 V 849.01 L 295.25,708.97 141.23,796.8 Z" />
	<path
   id="polygon2133"
   style="fill:#4c4c4c;stroke:none;stroke-width:8.2;stroke-dasharray:none"
   class="st6"
   d="M 542.861,1022.05 V 849.01 l 247.63,-140.04 154.03,87.83 z" />
	<path
   id="polygon2135"
   style="fill:#808080;stroke:none;stroke-width:8.2;stroke-dasharray:none"
   class="st7"
   d="M 110.89,275.97 V 730.3 L 264.91,643.8 V 363.81 Z" />
	<path
   id="polygon2137"
   style="fill:#ffffff;stroke:none;stroke-width:8.2;stroke-dasharray:none"
   class="st16"
   d="M 512.55,223.77 264.91,363.81 110.89,275.97 V 50.05 L 287.75,176.79 512.55,50.73 Z" />
	<path
   id="polygon2139"
   style="fill:#4c4c4c;stroke:none;stroke-width:8.2;stroke-dasharray:none"
   class="st6"
   d="m 137.22,98.93 v 162.23 l 75.71,43.57 118.09,-66.78 z" />
	<path
   id="polygon2141"
   style="fill:#4c4c4c;stroke:none;stroke-width:8.2;stroke-dasharray:none"
   class="st6"
   d="M 974.89,275.97 V 730.3 L 820.86,643.8 V 363.81 Z" />
	<path
   id="polygon2143"
   style="fill:#ffffff;stroke:none;stroke-width:8.2;stroke-dasharray:none"
   class="st16"
   d="M 573.23,223.77 820.86,363.81 974.89,275.97 V 50.05 L 798.02,176.79 573.23,50.73 Z" />
	<path
   id="polygon2145"
   style="fill:#808080;stroke:none;stroke-width:8.2;stroke-dasharray:none"
   class="st7"
   d="M 948.56,98.93 V 261.16 L 872.84,304.73 754.75,237.95 Z" />
	
	
	
	<g
   id="g10366"
   style="stroke:none;stroke-width:8.2;stroke-dasharray:none;stroke-opacity:1;paint-order:markers stroke fill"><path
     id="polygon2147"
     style="fill:#ffffff;stroke:none;stroke-width:8.19961;stroke-dasharray:none;stroke-opacity:1;paint-order:markers stroke fill"
     class="st16"
     d="M 542.861,493.6083 415.8073,458.07 542.861,530.52654 Z" /><path
     id="polyline2149"
     style="fill:#808080;stroke:none;stroke-width:8.19959;stroke-dasharray:none;stroke-opacity:1;paint-order:markers stroke fill"
     class="st7"
     d="m 542.861,530.52641 v 59.49705 L 415.8073,458.07" /><path
     id="polygon2151"
     style="fill:#ffffff;stroke:none;stroke-width:8.19959;stroke-dasharray:none;stroke-opacity:1;paint-order:markers stroke fill"
     class="st16"
     d="M 542.861,530.52641 V 493.60824 L 669.9147,458.07 Z" /><path
     id="polyline2153"
     style="fill:#4c4c4c;stroke:none;stroke-width:8.19959;stroke-dasharray:none;stroke-opacity:1;paint-order:markers stroke fill"
     class="st6"
     d="m 542.861,530.52641 v 59.49705 L 669.9147,458.07" /></g>
	
	
	
	
	<path
   id="ellipse2163"
   style="fill:#808080;stroke:none;stroke-width:10;stroke-dasharray:none"
   class="st7"
   d="m 480.57999,366.29001 a 36,47 0 0 1 -36,47 36,47 0 0 1 -36,-47 36,47 0 0 1 36,-47 36,47 0 0 1 36,47 z" />
	<path
   id="ellipse2165"
   style="fill:#4c4c4c;stroke:none;stroke-width:8.2;stroke-dasharray:none"
   class="st6"
   d="m 677.20001,366.29001 a 36,47 0 0 1 -36,47 36,47 0 0 1 -36,-47 36,47 0 0 1 36,-47 36,47 0 0 1 36,47 z" />
	<path
   class="st16"
   d="m 452.27992,333.49 c 0,0 -9.1,22.78 -21.4,32.29 0,0 -2.45,3.09 -4.38,-5.2 -1.92,-8.29 -3.3,-27.31 12.89,-31.3 16.19,-3.99 12.89,4.21 12.89,4.21 z"
   id="path2167"
   style="stroke:none;stroke-width:8.2;stroke-dasharray:none;stroke-opacity:1" />
	<path
   class="st7"
   d="m 648.9,333.49 c 0,0 -9.1,22.78 -21.4,32.29 0,0 -2.45,3.09 -4.38,-5.2 -1.92,-8.29 -3.3,-27.31 12.89,-31.3 16.19,-3.99 12.89,4.21 12.89,4.21 z"
   id="path2169"
   style="stroke:none;stroke-width:8.2;stroke-dasharray:none;stroke-opacity:1" />
	<g
   id="g19046"><path
     id="polygon2155"
     style="fill:#808080;stroke:none;stroke-width:8.2;stroke-dasharray:none"
     class="st7"
     d="m 367.75753,609.05977 105.83024,74.35937 20.89262,-4.89844 c 2.02749,18.66698 10.82151,54.06068 48.41804,54.78907 0,-27.12792 0,-56.76887 0,-82.74024 l -65.2208,-0.57031 z"
     sodipodi:nodetypes="ccccccc" /><path
     id="polygon2159"
     style="fill:#4c4c4c;stroke:none;stroke-width:8.2;stroke-dasharray:none"
     class="st6"
     d="m 718.00162,609.05977 -109.92968,40.93945 -65.21094,0.57031 c 0,5.5332 0,11.06641 0,16.59961 v 66.14063 c 37.59514,-0.72836 46.39009,-36.11962 48.41797,-54.78711 l 20.88281,4.89648 z"
     sodipodi:nodetypes="cccccccc" /><path
     class="st16"
     d="m 505.50036,693.5 c 0,0 23.87,14.14 31,23 0,0 7.87,7.11 -8.06,6.06 -15.94,-1.06 -23.94,-23.06 -23.94,-23.06 0,0 -2.82,-8.1 1,-6 z"
     id="path2171"
     style="stroke:none;stroke-width:8.2;stroke-dasharray:none;stroke-opacity:1" /></g>
</g>
<g
   id="Layer_8"
   class="st0">
	<rect
   x="20.5"
   y="1022.5"
   class="st17"
   width="42"
   height="42"
   id="rect2174" />
	<rect
   x="69.5"
   y="1022.5"
   class="st18"
   width="42"
   height="42"
   id="rect2176" />
	<rect
   x="118.5"
   y="1022.5"
   class="st1"
   width="42"
   height="42"
   id="rect2178" />
</g>
</svg>
